<svg xmlns="http://www.w3.org/2000/svg" xmlns:xlink="http://www.w3.org/1999/xlink" width="500" zoomAndPan="magnify" viewBox="0 0 375 374.999991" height="500" preserveAspectRatio="xMidYMid meet" version="1.0"><defs><clipPath id="0429446021"><path d="M 0 53.523438 L 375 53.523438 L 375 321.273438 L 0 321.273438 Z M 0 53.523438 " clip-rule="nonzero"/></clipPath></defs><g clip-path="url(#0429446021)"><path fill="#ffffff" d="M 40.179688 53.570312 C 17.988281 53.570312 0 71.53125 0 93.746094 C 0.5 154.671875 0 219.15625 0 281.246094 C 0 302.628906 16.632812 319.9375 37.667969 321.21875 L 336.496094 321.425781 C 357.917969 320.5625 375 302.910156 375 281.246094 L 375 86.84375 C 371.75 67.902344 355.304688 53.570312 335.449219 53.570312 C 237.078125 53.613281 138.589844 53.570312 40.175781 53.570312 Z M 39.550781 74.703125 L 336.703125 74.703125 L 192.9375 218.46875 C 190.316406 221.09375 186.144531 221.09375 183.523438 218.46875 Z M 354.914062 84.957031 L 354.914062 279.785156 C 354.914062 291.390625 350.730469 297.949219 342.355469 300.292969 L 241.074219 198.800781 L 354.914062 84.960938 Z M 22.394531 85.792969 L 134.351562 197.753906 L 32.023438 300.082031 C 25.019531 297.714844 22.578125 292.074219 22.398438 284.386719 L 22.398438 85.796875 Z M 148.582031 211.769531 L 183.53125 246.925781 C 186.152344 249.546875 190.324219 249.546875 192.945312 246.925781 L 226.847656 213.023438 L 315.160156 301.335938 L 59.019531 301.335938 L 148.585938 211.769531 Z M 148.582031 211.769531 " fill-opacity="1" fill-rule="nonzero"/></g></svg>