<svg xmlns="http://www.w3.org/2000/svg" xmlns:xlink="http://www.w3.org/1999/xlink" width="500" zoomAndPan="magnify" viewBox="0 0 375 374.999991" height="500" preserveAspectRatio="xMidYMid meet" version="1.0"><path fill="#ffffff" d="M 304.949219 305.964844 C 303.792969 316.457031 292.878906 323.402344 276.28125 333.949219 C 247.472656 352.261719 218.703125 354.203125 206.421875 354.9375 C 168.398438 357.195312 140.414062 345.492188 125.828125 339.195312 C 100.917969 328.441406 88.464844 323.070312 86.417969 312.960938 C 81.453125 288.402344 137.859375 243.679688 196.574219 242.996094 C 251.8125 242.351562 307.746094 280.429688 304.949219 305.964844 Z M 304.949219 305.964844 " fill-opacity="1" fill-rule="nonzero"/><path fill="#ffffff" d="M 351.402344 189.652344 C 350.929688 255.050781 309.707031 315.480469 247.703125 337.691406 C 185.695312 359.90625 114.230469 340.4375 71.953125 289.15625 C 30.308594 238.660156 25.324219 164.882812 58.835938 108.878906 C 92.644531 52.367188 160.457031 22.003906 225.136719 35.296875 C 298.125 50.285156 350.859375 115.367188 351.386719 189.652344 C 351.472656 200.898438 368.964844 200.933594 368.875 189.652344 C 368.351562 116.871094 322.789062 51.089844 254.523438 25.535156 C 186.167969 -0.0351562 105.992188 21.511719 59.570312 77.761719 C 12.925781 134.3125 5.945312 216.078125 43.726562 279.238281 C 81.328125 342.101562 155.628906 374.949219 227.464844 361.324219 C 309.058594 345.84375 368.28125 272.050781 368.875 189.652344 C 368.964844 178.386719 351.472656 178.386719 351.386719 189.652344 Z M 351.402344 189.652344 " fill-opacity="1" fill-rule="nonzero"/><path fill="#ffffff" d="M 265.105469 147.761719 C 265.105469 148.949219 265.074219 150.136719 265.015625 151.324219 C 264.957031 152.511719 264.871094 153.699219 264.753906 154.882812 C 264.636719 156.0625 264.492188 157.242188 264.316406 158.417969 C 264.144531 159.59375 263.941406 160.765625 263.707031 161.933594 C 263.476562 163.097656 263.214844 164.257812 262.925781 165.410156 C 262.640625 166.5625 262.320312 167.710938 261.976562 168.847656 C 261.632812 169.984375 261.257812 171.113281 260.859375 172.234375 C 260.457031 173.351562 260.03125 174.460938 259.574219 175.558594 C 259.121094 176.65625 258.636719 177.742188 258.128906 178.816406 C 257.621094 179.894531 257.085938 180.953125 256.527344 182.003906 C 255.96875 183.050781 255.382812 184.085938 254.769531 185.105469 C 254.160156 186.125 253.523438 187.128906 252.863281 188.117188 C 252.203125 189.105469 251.519531 190.078125 250.808594 191.03125 C 250.101562 191.988281 249.371094 192.921875 248.617188 193.84375 C 247.863281 194.761719 247.085938 195.660156 246.289062 196.542969 C 245.488281 197.421875 244.667969 198.285156 243.828125 199.125 C 242.988281 199.964844 242.128906 200.785156 241.246094 201.582031 C 240.367188 202.382812 239.464844 203.15625 238.546875 203.910156 C 237.628906 204.664062 236.691406 205.398438 235.738281 206.105469 C 234.78125 206.8125 233.808594 207.496094 232.820312 208.15625 C 231.832031 208.820312 230.828125 209.453125 229.808594 210.066406 C 228.789062 210.675781 227.753906 211.261719 226.707031 211.824219 C 225.660156 212.382812 224.597656 212.917969 223.523438 213.425781 C 222.449219 213.933594 221.363281 214.414062 220.261719 214.871094 C 219.164062 215.324219 218.054688 215.753906 216.9375 216.152344 C 215.816406 216.554688 214.6875 216.925781 213.550781 217.273438 C 212.414062 217.617188 211.269531 217.933594 210.117188 218.222656 C 208.960938 218.511719 207.804688 218.773438 206.636719 219.003906 C 205.472656 219.234375 204.300781 219.4375 203.125 219.613281 C 201.949219 219.789062 200.769531 219.933594 199.585938 220.050781 C 198.402344 220.167969 197.21875 220.253906 196.03125 220.3125 C 194.84375 220.371094 193.65625 220.398438 192.464844 220.398438 C 191.277344 220.398438 190.089844 220.371094 188.902344 220.3125 C 187.714844 220.253906 186.527344 220.167969 185.347656 220.050781 C 184.164062 219.933594 182.984375 219.789062 181.808594 219.613281 C 180.632812 219.4375 179.460938 219.234375 178.292969 219.003906 C 177.128906 218.773438 175.96875 218.511719 174.816406 218.222656 C 173.664062 217.933594 172.515625 217.617188 171.378906 217.273438 C 170.242188 216.925781 169.113281 216.554688 167.996094 216.152344 C 166.875 215.753906 165.765625 215.324219 164.667969 214.871094 C 163.570312 214.414062 162.484375 213.933594 161.410156 213.425781 C 160.335938 212.917969 159.273438 212.382812 158.222656 211.824219 C 157.175781 211.261719 156.140625 210.675781 155.121094 210.066406 C 154.101562 209.453125 153.097656 208.820312 152.109375 208.15625 C 151.121094 207.496094 150.148438 206.8125 149.195312 206.105469 C 148.238281 205.398438 147.304688 204.664062 146.382812 203.910156 C 145.464844 203.15625 144.566406 202.382812 143.683594 201.582031 C 142.804688 200.785156 141.941406 199.964844 141.101562 199.125 C 140.261719 198.285156 139.441406 197.421875 138.644531 196.542969 C 137.84375 195.660156 137.070312 194.761719 136.316406 193.84375 C 135.5625 192.921875 134.828125 191.988281 134.121094 191.03125 C 133.414062 190.078125 132.730469 189.105469 132.070312 188.117188 C 131.410156 187.128906 130.773438 186.125 130.160156 185.105469 C 129.550781 184.085938 128.964844 183.050781 128.402344 182.003906 C 127.84375 180.953125 127.308594 179.894531 126.800781 178.816406 C 126.292969 177.742188 125.8125 176.65625 125.355469 175.558594 C 124.902344 174.460938 124.472656 173.351562 124.074219 172.234375 C 123.671875 171.113281 123.300781 169.984375 122.953125 168.847656 C 122.609375 167.710938 122.292969 166.5625 122.003906 165.410156 C 121.714844 164.257812 121.453125 163.097656 121.222656 161.933594 C 120.992188 160.765625 120.789062 159.59375 120.613281 158.417969 C 120.4375 157.242188 120.292969 156.0625 120.175781 154.882812 C 120.058594 153.699219 119.972656 152.511719 119.914062 151.324219 C 119.855469 150.136719 119.828125 148.949219 119.828125 147.761719 C 119.828125 146.574219 119.855469 145.382812 119.914062 144.195312 C 119.972656 143.007812 120.058594 141.824219 120.175781 140.640625 C 120.292969 139.457031 120.4375 138.277344 120.613281 137.101562 C 120.789062 135.925781 120.992188 134.757812 121.222656 133.589844 C 121.453125 132.425781 121.714844 131.265625 122.003906 130.113281 C 122.292969 128.957031 122.609375 127.8125 122.953125 126.675781 C 123.300781 125.539062 123.671875 124.410156 124.074219 123.289062 C 124.472656 122.171875 124.902344 121.0625 125.355469 119.964844 C 125.8125 118.863281 126.292969 117.777344 126.800781 116.703125 C 127.308594 115.628906 127.84375 114.566406 128.402344 113.519531 C 128.964844 112.472656 129.550781 111.4375 130.160156 110.417969 C 130.773438 109.398438 131.410156 108.394531 132.070312 107.40625 C 132.730469 106.417969 133.414062 105.445312 134.121094 104.492188 C 134.828125 103.535156 135.5625 102.597656 136.316406 101.679688 C 137.070312 100.761719 137.84375 99.859375 138.644531 98.980469 C 139.441406 98.097656 140.261719 97.238281 141.101562 96.398438 C 141.941406 95.558594 142.804688 94.738281 143.683594 93.9375 C 144.566406 93.140625 145.464844 92.363281 146.382812 91.609375 C 147.304688 90.855469 148.238281 90.125 149.195312 89.417969 C 150.148438 88.710938 151.121094 88.023438 152.109375 87.363281 C 153.097656 86.703125 154.101562 86.066406 155.121094 85.457031 C 156.140625 84.84375 157.175781 84.261719 158.222656 83.699219 C 159.273438 83.140625 160.335938 82.605469 161.410156 82.097656 C 162.484375 81.589844 163.570312 81.105469 164.667969 80.652344 C 165.765625 80.195312 166.875 79.769531 167.996094 79.367188 C 169.113281 78.96875 170.242188 78.59375 171.378906 78.25 C 172.515625 77.90625 173.664062 77.589844 174.816406 77.300781 C 175.96875 77.011719 177.128906 76.75 178.292969 76.519531 C 179.460938 76.285156 180.632812 76.082031 181.808594 75.910156 C 182.984375 75.734375 184.164062 75.589844 185.347656 75.472656 C 186.527344 75.355469 187.714844 75.269531 188.902344 75.210938 C 190.089844 75.152344 191.277344 75.121094 192.464844 75.121094 C 193.65625 75.121094 194.84375 75.152344 196.03125 75.210938 C 197.21875 75.269531 198.402344 75.355469 199.585938 75.472656 C 200.769531 75.589844 201.949219 75.734375 203.125 75.910156 C 204.300781 76.082031 205.472656 76.285156 206.636719 76.519531 C 207.804688 76.75 208.960938 77.011719 210.117188 77.300781 C 211.269531 77.589844 212.414062 77.90625 213.550781 78.25 C 214.6875 78.59375 215.816406 78.96875 216.9375 79.367188 C 218.054688 79.769531 219.164062 80.195312 220.261719 80.652344 C 221.363281 81.105469 222.449219 81.589844 223.523438 82.097656 C 224.597656 82.605469 225.660156 83.140625 226.707031 83.699219 C 227.753906 84.261719 228.789062 84.84375 229.808594 85.457031 C 230.828125 86.066406 231.832031 86.703125 232.820312 87.363281 C 233.808594 88.023438 234.78125 88.710938 235.738281 89.417969 C 236.691406 90.125 237.628906 90.855469 238.546875 91.609375 C 239.464844 92.363281 240.367188 93.140625 241.246094 93.9375 C 242.128906 94.738281 242.988281 95.558594 243.828125 96.398438 C 244.667969 97.238281 245.488281 98.097656 246.289062 98.980469 C 247.085938 99.859375 247.863281 100.761719 248.617188 101.679688 C 249.371094 102.597656 250.101562 103.535156 250.808594 104.492188 C 251.519531 105.445312 252.203125 106.417969 252.863281 107.40625 C 253.523438 108.394531 254.160156 109.398438 254.769531 110.417969 C 255.382812 111.4375 255.96875 112.472656 256.527344 113.519531 C 257.085938 114.566406 257.621094 115.628906 258.128906 116.703125 C 258.636719 117.777344 259.121094 118.863281 259.574219 119.964844 C 260.03125 121.0625 260.457031 122.171875 260.859375 123.289062 C 261.257812 124.410156 261.632812 125.539062 261.976562 126.675781 C 262.320312 127.8125 262.640625 128.957031 262.925781 130.113281 C 263.214844 131.265625 263.476562 132.425781 263.707031 133.589844 C 263.941406 134.757812 264.144531 135.925781 264.316406 137.101562 C 264.492188 138.277344 264.636719 139.457031 264.753906 140.640625 C 264.871094 141.824219 264.957031 143.007812 265.015625 144.195312 C 265.074219 145.382812 265.105469 146.574219 265.105469 147.761719 Z M 265.105469 147.761719 " fill-opacity="1" fill-rule="nonzero"/></svg>