<svg xmlns="http://www.w3.org/2000/svg" xmlns:xlink="http://www.w3.org/1999/xlink" width="1000" zoomAndPan="magnify" viewBox="0 0 750 187.499995" height="250" preserveAspectRatio="xMidYMid meet" version="1.0"><defs><g/></defs><g fill="#ffffff" fill-opacity="1"><g transform="translate(1.147105, 148.610023)"><g><path d="M 113.828125 8.328125 C 114.921875 8.328125 115.863281 8.695312 116.65625 9.4375 C 117.445312 10.175781 117.84375 11.140625 117.84375 12.328125 C 117.84375 14.015625 116.972656 15.648438 115.234375 17.234375 C 113.503906 18.816406 111.226562 20.273438 108.40625 21.609375 C 105.582031 22.953125 102.609375 23.992188 99.484375 24.734375 C 96.367188 25.484375 93.425781 25.859375 90.65625 25.859375 C 84.8125 25.859375 79.90625 25.210938 75.9375 23.921875 C 71.976562 22.640625 68.507812 21.15625 65.53125 19.46875 C 62.5625 17.78125 59.539062 16.289062 56.46875 15 C 53.394531 13.71875 49.726562 13.078125 45.46875 13.078125 C 43.6875 13.078125 42.125 13.375 40.78125 13.96875 C 39.445312 14.5625 38.210938 15.128906 37.078125 15.671875 C 35.941406 16.222656 34.726562 16.5 33.4375 16.5 C 32.25 16.5 31.234375 16.050781 30.390625 15.15625 C 29.546875 14.269531 29.125 13.179688 29.125 11.890625 C 29.125 10.109375 29.96875 8.867188 31.65625 8.171875 L 57.21875 -1.046875 L 70.890625 -0.59375 L 47.25 7.4375 L 49.1875 5.34375 C 53.351562 5.34375 57.066406 5.9375 60.328125 7.125 C 63.597656 8.320312 66.742188 9.738281 69.765625 11.375 C 72.796875 13.007812 75.992188 14.441406 79.359375 15.671875 C 82.722656 16.910156 86.585938 17.53125 90.953125 17.53125 C 94.816406 17.53125 98.007812 16.960938 100.53125 15.828125 C 103.0625 14.691406 105.117188 13.675781 106.703125 12.78125 C 108.191406 11.882812 109.453125 10.914062 110.484375 9.875 C 111.523438 8.84375 112.640625 8.328125 113.828125 8.328125 Z M 106.703125 -52.015625 C 106.703125 -44.179688 105.488281 -37.019531 103.0625 -30.53125 C 100.632812 -24.050781 97.191406 -18.40625 92.734375 -13.59375 C 88.273438 -8.789062 83 -5.078125 76.90625 -2.453125 C 70.8125 0.171875 64.148438 1.484375 56.921875 1.484375 C 49.679688 1.484375 43.015625 0.171875 36.921875 -2.453125 C 30.835938 -5.078125 25.566406 -8.789062 21.109375 -13.59375 C 16.648438 -18.40625 13.207031 -24.050781 10.78125 -30.53125 C 8.351562 -37.019531 7.140625 -44.179688 7.140625 -52.015625 C 7.140625 -59.835938 8.351562 -66.992188 10.78125 -73.484375 C 13.207031 -79.972656 16.648438 -85.617188 21.109375 -90.421875 C 25.566406 -95.234375 30.835938 -98.953125 36.921875 -101.578125 C 43.015625 -104.203125 49.679688 -105.515625 56.921875 -105.515625 C 64.148438 -105.515625 70.8125 -104.203125 76.90625 -101.578125 C 83 -98.953125 88.273438 -95.234375 92.734375 -90.421875 C 97.191406 -85.617188 100.632812 -79.972656 103.0625 -73.484375 C 105.488281 -66.992188 106.703125 -59.835938 106.703125 -52.015625 Z M 97.1875 -52.015625 C 97.1875 -60.828125 95.476562 -68.578125 92.0625 -75.265625 C 88.644531 -81.953125 83.914062 -87.175781 77.875 -90.9375 C 71.832031 -94.707031 64.847656 -96.59375 56.921875 -96.59375 C 49.085938 -96.59375 42.125 -94.707031 36.03125 -90.9375 C 29.9375 -87.175781 25.179688 -81.953125 21.765625 -75.265625 C 18.347656 -68.578125 16.640625 -60.828125 16.640625 -52.015625 C 16.640625 -43.191406 18.347656 -35.4375 21.765625 -28.75 C 25.179688 -22.0625 29.9375 -16.835938 36.03125 -13.078125 C 42.125 -9.316406 49.085938 -7.4375 56.921875 -7.4375 C 64.847656 -7.4375 71.832031 -9.316406 77.875 -13.078125 C 83.914062 -16.835938 88.644531 -22.0625 92.0625 -28.75 C 95.476562 -35.4375 97.1875 -43.191406 97.1875 -52.015625 Z M 97.1875 -52.015625 "/></g></g></g><g fill="#ffffff" fill-opacity="1"><g transform="translate(116.277367, 148.610023)"><g><path d="M 87.53125 -104.03125 C 88.914062 -104.03125 90.003906 -103.609375 90.796875 -102.765625 C 91.585938 -101.921875 91.984375 -100.851562 91.984375 -99.5625 L 91.984375 -38.046875 C 91.984375 -30.710938 90.25 -24.070312 86.78125 -18.125 C 83.320312 -12.1875 78.664062 -7.457031 72.8125 -3.9375 C 66.96875 -0.414062 60.378906 1.34375 53.046875 1.34375 C 45.722656 1.34375 39.113281 -0.414062 33.21875 -3.9375 C 27.320312 -7.457031 22.640625 -12.1875 19.171875 -18.125 C 15.703125 -24.070312 13.96875 -30.710938 13.96875 -38.046875 L 13.96875 -99.5625 C 13.96875 -100.851562 14.390625 -101.921875 15.234375 -102.765625 C 16.078125 -103.609375 17.238281 -104.03125 18.71875 -104.03125 C 19.914062 -104.03125 20.957031 -103.609375 21.84375 -102.765625 C 22.738281 -101.921875 23.1875 -100.851562 23.1875 -99.5625 L 23.1875 -38.046875 C 23.1875 -32.296875 24.546875 -27.140625 27.265625 -22.578125 C 29.992188 -18.023438 33.632812 -14.382812 38.1875 -11.65625 C 42.75 -8.9375 47.703125 -7.578125 53.046875 -7.578125 C 58.597656 -7.578125 63.648438 -8.9375 68.203125 -11.65625 C 72.765625 -14.382812 76.40625 -18.023438 79.125 -22.578125 C 81.851562 -27.140625 83.21875 -32.296875 83.21875 -38.046875 L 83.21875 -99.5625 C 83.21875 -100.851562 83.613281 -101.921875 84.40625 -102.765625 C 85.195312 -103.609375 86.238281 -104.03125 87.53125 -104.03125 Z M 87.53125 -104.03125 "/></g></g></g><g fill="#ffffff" fill-opacity="1"><g transform="translate(222.197191, 148.610023)"><g><path d="M 106.703125 -52.015625 C 106.703125 -44.179688 105.488281 -37.019531 103.0625 -30.53125 C 100.632812 -24.050781 97.191406 -18.40625 92.734375 -13.59375 C 88.273438 -8.789062 83 -5.078125 76.90625 -2.453125 C 70.8125 0.171875 64.148438 1.484375 56.921875 1.484375 C 49.679688 1.484375 43.015625 0.171875 36.921875 -2.453125 C 30.835938 -5.078125 25.566406 -8.789062 21.109375 -13.59375 C 16.648438 -18.40625 13.207031 -24.050781 10.78125 -30.53125 C 8.351562 -37.019531 7.140625 -44.179688 7.140625 -52.015625 C 7.140625 -59.835938 8.351562 -66.992188 10.78125 -73.484375 C 13.207031 -79.972656 16.648438 -85.617188 21.109375 -90.421875 C 25.566406 -95.234375 30.835938 -98.953125 36.921875 -101.578125 C 43.015625 -104.203125 49.679688 -105.515625 56.921875 -105.515625 C 64.148438 -105.515625 70.8125 -104.203125 76.90625 -101.578125 C 83 -98.953125 88.273438 -95.234375 92.734375 -90.421875 C 97.191406 -85.617188 100.632812 -79.972656 103.0625 -73.484375 C 105.488281 -66.992188 106.703125 -59.835938 106.703125 -52.015625 Z M 97.1875 -52.015625 C 97.1875 -60.828125 95.476562 -68.578125 92.0625 -75.265625 C 88.644531 -81.953125 83.914062 -87.175781 77.875 -90.9375 C 71.832031 -94.707031 64.847656 -96.59375 56.921875 -96.59375 C 49.085938 -96.59375 42.125 -94.707031 36.03125 -90.9375 C 29.9375 -87.175781 25.179688 -81.953125 21.765625 -75.265625 C 18.347656 -68.578125 16.640625 -60.828125 16.640625 -52.015625 C 16.640625 -43.191406 18.347656 -35.4375 21.765625 -28.75 C 25.179688 -22.0625 29.9375 -16.835938 36.03125 -13.078125 C 42.125 -9.316406 49.085938 -7.4375 56.921875 -7.4375 C 64.847656 -7.4375 71.832031 -9.316406 77.875 -13.078125 C 83.914062 -16.835938 88.644531 -22.0625 92.0625 -28.75 C 95.476562 -35.4375 97.1875 -43.191406 97.1875 -52.015625 Z M 97.1875 -52.015625 "/></g></g></g><g fill="#ffffff" fill-opacity="1"><g transform="translate(335.99049, 148.610023)"><g><path d="M 44.875 0 C 43.488281 0 42.375 -0.441406 41.53125 -1.328125 C 40.6875 -2.222656 40.265625 -3.265625 40.265625 -4.453125 L 40.265625 -99.125 L 49.484375 -99.125 L 49.484375 -4.453125 C 49.484375 -3.265625 49.035156 -2.222656 48.140625 -1.328125 C 47.253906 -0.441406 46.164062 0 44.875 0 Z M 9.515625 -95.5625 C 8.328125 -95.5625 7.285156 -95.957031 6.390625 -96.75 C 5.492188 -97.539062 5.046875 -98.578125 5.046875 -99.859375 C 5.046875 -101.054688 5.492188 -102.050781 6.390625 -102.84375 C 7.285156 -103.632812 8.328125 -104.03125 9.515625 -104.03125 L 80.25 -104.03125 C 81.4375 -104.03125 82.472656 -103.632812 83.359375 -102.84375 C 84.253906 -102.050781 84.703125 -101.007812 84.703125 -99.71875 C 84.703125 -98.425781 84.253906 -97.410156 83.359375 -96.671875 C 82.472656 -95.929688 81.4375 -95.5625 80.25 -95.5625 Z M 9.515625 -95.5625 "/></g></g></g><g fill="#ffffff" fill-opacity="1"><g transform="translate(425.717826, 148.610023)"><g><path d="M 23.328125 -4.609375 C 23.234375 -3.316406 22.710938 -2.222656 21.765625 -1.328125 C 20.828125 -0.441406 19.765625 0 18.578125 0 C 17.191406 0 16.078125 -0.441406 15.234375 -1.328125 C 14.390625 -2.222656 13.96875 -3.316406 13.96875 -4.609375 L 13.96875 -99.421875 C 13.96875 -100.710938 14.410156 -101.800781 15.296875 -102.6875 C 16.191406 -103.582031 17.332031 -104.03125 18.71875 -104.03125 C 19.914062 -104.03125 20.984375 -103.582031 21.921875 -102.6875 C 22.859375 -101.800781 23.328125 -100.710938 23.328125 -99.421875 Z M 23.328125 -4.609375 "/></g></g></g><g fill="#ffffff" fill-opacity="1"><g transform="translate(462.856601, 148.610023)"><g><path d="M 18.421875 -104.03125 L 72.96875 -104.03125 C 74.15625 -104.03125 75.191406 -103.609375 76.078125 -102.765625 C 76.972656 -101.921875 77.421875 -100.851562 77.421875 -99.5625 C 77.421875 -98.28125 76.972656 -97.242188 76.078125 -96.453125 C 75.191406 -95.660156 74.15625 -95.265625 72.96875 -95.265625 L 21.84375 -95.265625 L 23.328125 -97.78125 L 23.328125 -56.03125 L 21.703125 -57.953125 L 66.28125 -57.953125 C 67.46875 -57.953125 68.503906 -57.503906 69.390625 -56.609375 C 70.285156 -55.722656 70.734375 -54.6875 70.734375 -53.5 C 70.734375 -52.207031 70.285156 -51.164062 69.390625 -50.375 C 68.503906 -49.582031 67.46875 -49.1875 66.28125 -49.1875 L 22 -49.1875 L 23.328125 -50.671875 L 23.328125 -7.875 L 22.59375 -8.765625 L 72.96875 -8.765625 C 74.15625 -8.765625 75.191406 -8.316406 76.078125 -7.421875 C 76.972656 -6.535156 77.421875 -5.5 77.421875 -4.3125 C 77.421875 -3.019531 76.972656 -1.976562 76.078125 -1.1875 C 75.191406 -0.394531 74.15625 0 72.96875 0 L 18.421875 0 C 17.234375 0 16.191406 -0.441406 15.296875 -1.328125 C 14.410156 -2.222656 13.96875 -3.265625 13.96875 -4.453125 L 13.96875 -99.5625 C 13.96875 -100.757812 14.410156 -101.800781 15.296875 -102.6875 C 16.191406 -103.582031 17.234375 -104.03125 18.421875 -104.03125 Z M 18.421875 -104.03125 "/></g></g></g><g fill="#ffffff" fill-opacity="1"><g transform="translate(547.235947, 148.610023)"><g><path d="M 90.0625 -104.03125 C 91.34375 -104.03125 92.351562 -103.632812 93.09375 -102.84375 C 93.84375 -102.050781 94.21875 -101.054688 94.21875 -99.859375 L 94.21875 -4.75 C 94.21875 -3.269531 93.742188 -2.109375 92.796875 -1.265625 C 91.859375 -0.421875 90.796875 0 89.609375 0 C 89.015625 0 88.367188 -0.125 87.671875 -0.375 C 86.984375 -0.625 86.441406 -0.992188 86.046875 -1.484375 L 19.765625 -90.796875 L 22.296875 -92.140625 L 22.296875 -4.015625 C 22.296875 -2.921875 21.894531 -1.976562 21.09375 -1.1875 C 20.300781 -0.394531 19.3125 0 18.125 0 C 16.84375 0 15.828125 -0.394531 15.078125 -1.1875 C 14.335938 -1.976562 13.96875 -2.921875 13.96875 -4.015625 L 13.96875 -99.5625 C 13.96875 -101.050781 14.410156 -102.164062 15.296875 -102.90625 C 16.191406 -103.65625 17.1875 -104.03125 18.28125 -104.03125 C 18.875 -104.03125 19.515625 -103.90625 20.203125 -103.65625 C 20.898438 -103.40625 21.445312 -102.984375 21.84375 -102.390625 L 87.375 -14.125 L 85.890625 -11.4375 L 85.890625 -99.859375 C 85.890625 -101.054688 86.3125 -102.050781 87.15625 -102.84375 C 88 -103.632812 88.96875 -104.03125 90.0625 -104.03125 Z M 90.0625 -104.03125 "/></g></g></g><g fill="#ffffff" fill-opacity="1"><g transform="translate(655.384159, 148.610023)"><g><path d="M 44.875 0 C 43.488281 0 42.375 -0.441406 41.53125 -1.328125 C 40.6875 -2.222656 40.265625 -3.265625 40.265625 -4.453125 L 40.265625 -99.125 L 49.484375 -99.125 L 49.484375 -4.453125 C 49.484375 -3.265625 49.035156 -2.222656 48.140625 -1.328125 C 47.253906 -0.441406 46.164062 0 44.875 0 Z M 9.515625 -95.5625 C 8.328125 -95.5625 7.285156 -95.957031 6.390625 -96.75 C 5.492188 -97.539062 5.046875 -98.578125 5.046875 -99.859375 C 5.046875 -101.054688 5.492188 -102.050781 6.390625 -102.84375 C 7.285156 -103.632812 8.328125 -104.03125 9.515625 -104.03125 L 80.25 -104.03125 C 81.4375 -104.03125 82.472656 -103.632812 83.359375 -102.84375 C 84.253906 -102.050781 84.703125 -101.007812 84.703125 -99.71875 C 84.703125 -98.425781 84.253906 -97.410156 83.359375 -96.671875 C 82.472656 -95.929688 81.4375 -95.5625 80.25 -95.5625 Z M 9.515625 -95.5625 "/></g></g></g></svg>